<svg width="16" height="12" viewBox="0 0 16 12" fill="none" xmlns="http://www.w3.org/2000/svg">
<path d="M9.3 11.275C9.1 11.075 9.00417 10.8334 9.0125 10.55C9.02083 10.2667 9.125 10.025 9.325 9.82505L12.15 7.00005H1C0.716667 7.00005 0.479167 6.90422 0.2875 6.71255C0.0958333 6.52088 0 6.28338 0 6.00005C0 5.71672 0.0958333 5.47922 0.2875 5.28755C0.479167 5.09588 0.716667 5.00005 1 5.00005H12.15L9.3 2.15005C9.1 1.95005 9 1.71255 9 1.43755C9 1.16255 9.1 0.925049 9.3 0.725049C9.5 0.525049 9.7375 0.425049 10.0125 0.425049C10.2875 0.425049 10.525 0.525049 10.725 0.725049L15.3 5.30005C15.4 5.40005 15.4708 5.50838 15.5125 5.62505C15.5542 5.74172 15.575 5.86672 15.575 6.00005C15.575 6.13338 15.5542 6.25838 15.5125 6.37505C15.4708 6.49172 15.4 6.60005 15.3 6.70005L10.7 11.3C10.5167 11.4834 10.2875 11.575 10.0125 11.575C9.7375 11.575 9.5 11.475 9.3 11.275Z" fill="white"/>
</svg>
